HIERARCHY
ROOT Hips
{
	OFFSET -14.64140 90.27770 -84.91600
	CHANNELS 6 Xposition Yposition Zposition Zrotation Xrotation Yrotation
	JOINT Spine
	{
		OFFSET 0.00000 13.20850 -1.60436
		CHANNELS 3 Zrotation Xrotation Yrotation
		JOINT Spine1
		{
			OFFSET 0.00000 8.61716 0.00000
			CHANNELS 3 Zrotation Xrotation Yrotation
			JOINT Spine2
			{
				OFFSET 0.00000 8.61717 0.00000
				CHANNELS 3 Zrotation Xrotation Yrotation
				JOINT Spine3
				{
					OFFSET 0.00000 8.61717 0.00000
					CHANNELS 3 Zrotation Xrotation Yrotation
					JOINT Neck
					{
						OFFSET 0.00000 11.07920 1.10792
						CHANNELS 3 Zrotation Xrotation Yrotation
						JOINT Neck1
						{
							OFFSET 0.00000 7.08032 0.00000
							CHANNELS 3 Zrotation Xrotation Yrotation
							JOINT Head
							{
								OFFSET 0.00000 7.08031 0.00000
								CHANNELS 3 Zrotation Xrotation Yrotation
								End site
								{
									OFFSET 0.00000 0.00000 0.00000
								}
							}
						}
					}
					JOINT RightShoulder
					{
						OFFSET -0.01000 7.91373 5.19711
						CHANNELS 3 Zrotation Xrotation Yrotation
						JOINT RightArm
						{
							OFFSET -18.41580 0.00000 0.00000
							CHANNELS 3 Zrotation Xrotation Yrotation
							JOINT RightForeArm
							{
								OFFSET -29.11090 0.00000 0.00000
								CHANNELS 3 Zrotation Xrotation Yrotation
								JOINT RightHand
								{
									OFFSET -24.65040 0.00000 0.00000
									CHANNELS 3 Zrotation Xrotation Yrotation
									JOINT RightHandThumb1
									{
										OFFSET -5.35114 -0.85590 3.97906
										CHANNELS 3 Zrotation Xrotation Yrotation
										JOINT RightHandThumb2
										{
											OFFSET -4.52789 0.00000 0.00000
											CHANNELS 3 Zrotation Xrotation Yrotation
											JOINT RightHandThumb3
											{
												OFFSET -2.46976 0.00000 0.00000
												CHANNELS 3 Zrotation Xrotation Yrotation
												End site
												{
													OFFSET 0.00000 0.00000 0.00000
												}
											}
										}
									}
									JOINT RightHandIndex1
									{
										OFFSET -14.26970 0.00000 2.88139
										CHANNELS 3 Zrotation Xrotation Yrotation
										JOINT RightHandIndex2
										{
											OFFSET -5.48836 0.00000 0.00000
											CHANNELS 3 Zrotation Xrotation Yrotation
											JOINT RightHandIndex3
											{
												OFFSET -3.01859 0.00000 0.00000
												CHANNELS 3 Zrotation Xrotation Yrotation
												End site
												{
													OFFSET 0.00000 0.00000 0.00000
												}
											}
										}
									}
									JOINT RightHandMiddle1
									{
										OFFSET -14.26970 0.00000 -0.09147
										CHANNELS 3 Zrotation Xrotation Yrotation
										JOINT RightHandMiddle2
										{
											OFFSET -6.17441 0.00000 0.00000
											CHANNELS 3 Zrotation Xrotation Yrotation
											JOINT RightHandMiddle3
											{
												OFFSET -3.56743 0.00000 0.00000
												CHANNELS 3 Zrotation Xrotation Yrotation
												End site
												{
													OFFSET 0.00000 0.00000 0.00000
												}
											}
										}
									}
									JOINT RightHandRing1
									{
										OFFSET -12.69180 0.00000 -3.06433
										CHANNELS 3 Zrotation Xrotation Yrotation
										JOINT RightHandRing2
										{
											OFFSET -5.62556 0.00000 0.00000
											CHANNELS 3 Zrotation Xrotation Yrotation
											JOINT RightHandRing3
											{
												OFFSET -3.56744 0.00000 0.00000
												CHANNELS 3 Zrotation Xrotation Yrotation
												End site
												{
													OFFSET 0.00000 0.00000 0.00000
												}
											}
										}
									}
									JOINT RightHandPinky1
									{
										OFFSET -11.11390 0.00000 -6.03719
										CHANNELS 3 Zrotation Xrotation Yrotation
										JOINT RightHandPinky2
										{
											OFFSET -4.52789 0.00000 0.00000
											CHANNELS 3 Zrotation Xrotation Yrotation
											JOINT RightHandPinky3
											{
												OFFSET -2.46976 0.00000 0.00000
												CHANNELS 3 Zrotation Xrotation Yrotation
												End site
												{
													OFFSET 0.00000 0.00000 0.00000
												}
											}
										}
									}
								}
							}
						}
					}
					JOINT LeftShoulder
					{
						OFFSET 0.01000 7.91373 5.19711
						CHANNELS 3 Zrotation Xrotation Yrotation
						JOINT LeftArm
						{
							OFFSET 18.41580 0.00000 0.00000
							CHANNELS 3 Zrotation Xrotation Yrotation
							JOINT LeftForeArm
							{
								OFFSET 29.11090 0.00000 0.00000
								CHANNELS 3 Zrotation Xrotation Yrotation
								JOINT LeftHand
								{
									OFFSET 24.65040 0.00000 0.00000
									CHANNELS 3 Zrotation Xrotation Yrotation
									JOINT LeftHandThumb1
									{
										OFFSET 5.35114 -0.85590 3.97906
										CHANNELS 3 Zrotation Xrotation Yrotation
										JOINT LeftHandThumb2
										{
											OFFSET 4.52789 0.00000 0.00000
											CHANNELS 3 Zrotation Xrotation Yrotation
											JOINT LeftHandThumb3
											{
												OFFSET 2.46977 0.00000 0.00000
												CHANNELS 3 Zrotation Xrotation Yrotation
												End site
												{
													OFFSET 0.00000 0.00000 0.00000
												}
											}
										}
									}
									JOINT LeftHandIndex1
									{
										OFFSET 14.26970 0.00000 2.88139
										CHANNELS 3 Zrotation Xrotation Yrotation
										JOINT LeftHandIndex2
										{
											OFFSET 5.48836 0.00000 0.00000
											CHANNELS 3 Zrotation Xrotation Yrotation
											JOINT LeftHandIndex3
											{
												OFFSET 3.01859 0.00000 0.00000
												CHANNELS 3 Zrotation Xrotation Yrotation
												End site
												{
													OFFSET 0.00000 0.00000 0.00000
												}
											}
										}
									}
									JOINT LeftHandMiddle1
									{
										OFFSET 14.26970 0.00000 -0.09147
										CHANNELS 3 Zrotation Xrotation Yrotation
										JOINT LeftHandMiddle2
										{
											OFFSET 6.17440 0.00000 0.00000
											CHANNELS 3 Zrotation Xrotation Yrotation
											JOINT LeftHandMiddle3
											{
												OFFSET 3.56744 0.00000 0.00000
												CHANNELS 3 Zrotation Xrotation Yrotation
												End site
												{
													OFFSET 0.00000 0.00000 0.00000
												}
											}
										}
									}
									JOINT LeftHandRing1
									{
										OFFSET 12.69180 0.00000 -3.06433
										CHANNELS 3 Zrotation Xrotation Yrotation
										JOINT LeftHandRing2
										{
											OFFSET 5.62556 0.00000 0.00000
											CHANNELS 3 Zrotation Xrotation Yrotation
											JOINT LeftHandRing3
											{
												OFFSET 3.56744 0.00000 0.00000
												CHANNELS 3 Zrotation Xrotation Yrotation
												End site
												{
													OFFSET 0.00000 0.00000 0.00000
												}
											}
										}
									}
									JOINT LeftHandPinky1
									{
										OFFSET 11.11390 0.00000 -6.03719
										CHANNELS 3 Zrotation Xrotation Yrotation
										JOINT LeftHandPinky2
										{
											OFFSET 4.52789 0.00000 0.00000
											CHANNELS 3 Zrotation Xrotation Yrotation
											JOINT LeftHandPinky3
											{
												OFFSET 2.46976 0.00000 0.00000
												CHANNELS 3 Zrotation Xrotation Yrotation
												End site
												{
													OFFSET 0.00000 0.00000 0.00000
												}
											}
										}
									}
								}
							}
						}
					}
					JOINT pCube4
					{
						OFFSET 0.00000 10.91090 1.10792
						CHANNELS 3 Zrotation Xrotation Yrotation
						End site
						{
							OFFSET 0.00000 0.00000 0.00000
						}
					}
				}
			}
		}
	}
	JOINT RightUpLeg
	{
		OFFSET -9.98441 0.00000 0.00000
		CHANNELS 3 Zrotation Xrotation Yrotation
		JOINT RightLeg
		{
			OFFSET 0.00000 -42.11790 0.00000
			CHANNELS 3 Zrotation Xrotation Yrotation
			JOINT RightFoot
			{
				OFFSET 0.00000 -45.00020 -0.00001
				CHANNELS 3 Zrotation Xrotation Yrotation
				JOINT RightForeFoot
				{
					OFFSET 0.00000 -3.74820 0.00000
					CHANNELS 3 Zrotation Xrotation Yrotation
					JOINT RightToeBase
					{
						OFFSET 0.00000 0.06325 14.43120
						CHANNELS 3 Zrotation Xrotation Yrotation
						End site
						{
							OFFSET 0.00000 0.00000 0.00000
						}
					}
				}
			}
		}
	}
	JOINT LeftUpLeg
	{
		OFFSET 9.98441 0.00000 0.00000
		CHANNELS 3 Zrotation Xrotation Yrotation
		JOINT LeftLeg
		{
			OFFSET 0.00000 -42.11800 0.00000
			CHANNELS 3 Zrotation Xrotation Yrotation
			JOINT LeftFoot
			{
				OFFSET 0.00000 -45.00070 0.00000
				CHANNELS 3 Zrotation Xrotation Yrotation
				JOINT LeftForeFoot
				{
					OFFSET 0.00000 -3.74824 0.00000
					CHANNELS 3 Zrotation Xrotation Yrotation
					JOINT LeftToeBase
					{
						OFFSET 0.00000 0.06325 14.43110
						CHANNELS 3 Zrotation Xrotation Yrotation
						End site
						{
							OFFSET 0.00000 0.00000 0.00000
						}
					}
				}
			}
		}
	}
}
MOTION
Frames: 4
Frame Time: 0.050000
-0.01877043817743883 -0.02990967367772487 -0.002779107393976544 0.037206131006980066 -0.03355496906265098 0.04778648760682759 0.2702213796316821 3.611782275146229 -1.3078569413815726 -1.0687458923385664 3.5142669158736255 0.415546528552816 -1.080930105986933 -1.0783125577005408 0.8106332255933915 -1.353235806120841 -0.35235066848582086 -0.40984980342242544 -0.5135287570570005 11.522780598861608 1.3481997058987132 0.006213978512952934 -0.3999793408265874 1.4428406669931053 -0.23887828378326262 -15.71449821852779 0.12816108220313102 -9.016315602777341 3.387697365685924 -14.549845306640382 62.83632716985705 -19.631346378134857 27.582358821360454 20.309734482403567 -4.618425702326847 80.91373886631419 16.408844295472367 -0.4877440760017555 -4.639153182926643 4.506079234514347 -0.12850757921806708 -1.6099855946665946 0.01654893744725567 0.047760152997786576 -56.249878556690604 0.009913483136049001 0.01217883985765188 -56.24008281569219 -38.78810549568013 0.01699435887240076 -0.021462386454559813 0.04693002874135276 0.0032862085598976353 0.014160093896065868 -0.0097406620431098 -0.014417536978325414 -0.002403486845992502 -36.73856615390695 -0.004985057293363239 0.04304177498202625 0.03871050297125851 0.026722186521328822 0.024617085992487575 0.012948050340171482 -0.01956755037231569 -0.003867576886585291 -19.761812268304677 0.020497486468370272 0.011628593320738671 -0.006790439854895714 0.029487222349752713 -0.008484836857542978 0.03406281429079086 0.03689916266379555 -0.038716527346046366 24.043589887927595 0.048109774845236764 0.03331992127727839 28.837520555510473 0.0069371497944451035 0.016363483947274333 28.837531508198968 0.004531193983723637 0.025839489875430874 7.4047426202498015 1.9147520455714313 13.093783155791336 -62.31845198904663 16.36491072348817 -18.288306129739563 7.991351930626587 -8.489100016437787 -50.5655195388179 -17.656503800825313 -0.6067193019861771 3.4746575193570273 -0.46133775168905267 0.0274387880987089 -8.170848365829968 -0.04440090776889193 -0.04636783777853459 44.59120175205039 -0.04468911194006731 -0.041180960714562946 44.55094835330374 12.446936370346489 -0.006438391481862429 -0.019246388277299974 0.03995130643988257 0.046498972566560895 0.0192794738057673 0.04606315985695726 0.02083391357189561 0.008042379974029323 11.120610079692643 0.037232989649201916 0.044339521775439115 0.038267926801744026 0.04283003434786127 -0.019816027918730918 -0.014486543382635123 -0.040165396041378594 0.010592552880419626 4.747416731822543 0.009144190671737029 -0.03139141889070499 -0.0213447583868487 0.04377139135555357 -0.022331790298777996 0.01703372222760021 0.019200238760489746 0.0027901424843130625 -5.571873643652047 -0.0018594118483374346 -0.006522473018936935 -6.677584903702207 -0.0025713098961232307 -0.017603224740685118 -6.731880532569466 -0.008481288194299908 -0.002676120135221788 -0.03140210380520283 0.0350148111608251 0.023633511805438656 8.093494816048961 3.4815647331810933 -19.240464860254985 -0.026016280149067983 10.375135084205228 -0.0033060100037260592 -5.664135807368523 -15.644366700774574 3.1647443906033907 0.01842477780128641 -0.006453914644842303 0.018408006844760922 0.003563224427596263 4.730565997053317 0.0321418901219971 12.491880850895713 -8.242512117570948 6.835224539721939 0.045373671038656825 46.415524626364046 -0.026786974838118004 -4.367988809047057 -14.786683624130863 -3.828449844763618 0.0066051705288160635 -0.00916825518619788 0.046544479372744266 0.046608309981720754 -10.702705949953387 -0.03459900947676171 
0.02023170944646091 -0.019688314861926407 -0.02068872721955399 -0.035063673890419436 0.01124378645081967 -0.02499859217610104 0.3909393446192861 3.5166623515622373 -1.4104167380761359 -1.036038362284341 3.539902060864417 0.4572155021798205 -1.0890605567736231 -0.9926215896638839 0.7830362335759222 -1.2005178345708278 -0.3991791422971906 -0.44051708492118685 -0.29079570347974726 11.36208041350983 0.5722905193512615 0.006679457724367871 -0.5061177465225825 -0.10360128542442479 0.044391661871744974 -15.96655041598165 0.051461269488346055 -9.310296296926726 3.466065902500627 -14.94128562242139 63.266875032507436 -21.59104131097172 27.376481774609633 19.33118341080468 -4.003076931656706 80.71507732258577 15.289592145325729 -0.4830454374297005 -4.37985267089543 4.489245844315197 -0.08925931090904834 -1.6406129783088244 -0.021818382192288134 -0.008943874366537175 -56.240038480210885 -0.022603194716853445 -0.00695178550708919 -56.25254863156848 -38.7916174365444 0.0446299174810288 -0.013140328642911155 0.023406903711025828 -0.025951205206637518 -0.03203179315603289 -0.011398509605549964 0.032731410628731916 -0.04792791243979725 -36.72118084550196 0.047822659340598345 0.017666004595410626 -0.01719520783837865 -0.007355893456321663 0.00904894944478605 0.01569469641812048 -0.0223193754180674 -0.026436275266856133 -19.75225364335186 -0.006071474363178044 0.007274406543549668 0.04685882932924085 0.013851920360890202 -0.005988923893372342 0.01761295007039378 0.03567728172470979 -0.006385151069057613 24.082574695119966 0.03173872530172333 -0.010695366331361636 28.827154615719895 -0.036118020190663916 0.0396933739407551 28.896315112308976 -0.019596420433109777 -0.029870546150249398 7.135958414903453 1.8242954795212063 13.063562662355963 -62.85505768980561 16.86069264342698 -17.241019641594065 6.865676210529264 -7.642071233420043 -50.452290280818204 -17.301065718541793 -1.1441512629113442 3.779865948304899 -0.5237935517328338 0.04755239943408381 -8.164930790200282 -0.021700742068779786 0.014352414798773751 44.546328167020654 -0.034125835413368034 -0.006720774490286691 44.581449831604175 12.493303065488709 0.04503655580488948 0.02668855187631806 -0.04294258261463644 -0.03752005980482855 0.0029784384536615098 -0.027357285843958815 0.043914967353305696 0.025621800571199442 11.12293451033058 0.04890858673805597 0.009867687634939221 -0.012891774656905901 -0.01332964856702604 -0.04527366130401448 -0.011454992802945386 -0.020578262884144646 -0.030011527233762686 4.726971631467996 0.04354351441298727 0.006420762799916036 0.011736347864582875 -0.030089427941771087 -0.03316870588752379 -0.011076426443507915 -0.047102897559139136 0.02004409289502826 -5.609881101130868 -0.03895504970977277 -0.027497953134865413 -6.734237654953275 0.04509730630902617 0.04034484974894708 -6.697565001400648 -0.03315199623627069 -0.0003084780174671815 -0.024687146597314732 -0.047139385080142086 -0.04259042794083724 8.092866896404823 3.5222899384712463 -19.21699466384141 -0.04973786759909832 10.397724559275055 0.03284966958414719 -5.664987953679108 -15.624276929045736 3.1748741026492207 0.04425002011029763 -0.008344912767414763 0.04771424848887789 -0.010195893618029538 4.742198282893809 -0.002320380698710217 12.49928302676465 -8.276219449150679 6.872015207059749 9.460781503819053e-05 46.33358370382965 -0.04601161711626897 -4.296177365305367 -14.768080789809103 -3.8752799239907048 0.048545005632236155 0.04683271803919157 -0.010173643122105077 -0.03200899143528259 -10.70162174049533 -0.03547796405671013 
0.012660168515863055 -0.036440429731740595 0.0336164812962923 -0.017791123171514992 -0.04957000331495024 0.013366503949361029 0.5854354230382193 3.6974063510191186 -1.4443722865552533 -1.0229591107001685 3.5072753391126583 0.4129555058708524 -1.0427389695469915 -0.9134319726649115 0.5528353039648009 -1.004793379994119 -0.3548886483761198 -0.4699132702350657 -0.1003739944354884 11.09058007232691 0.012640280136584005 0.07285929861795265 -0.6970744579660983 -1.0211152120742308 0.2544259589454285 -16.242457709302855 -0.08052434656520523 -9.0898096473527 3.3858656043411295 -15.243548372218797 64.43213076220313 -22.37244173407023 25.147305426833277 19.496209998332834 -3.0513624924241967 80.06923864917017 14.526419822733756 -0.5247966756698668 -4.176970548456519 4.5103022312885495 -0.16275276054183335 -1.5588718437305882 0.03085405632094982 0.015051299509165799 -56.230401784218195 -0.019014921197739267 -0.047952332146218135 -56.283446661274596 -38.72382550396232 0.02415300269290177 -0.026786688028424255 0.03883195721179068 -0.003175414947568443 0.014752086336319121 0.0006900091949446149 0.022020642814329777 0.016362666357690916 -36.68264882007006 0.0289129431174327 0.02436738874884912 0.01082129866506199 -0.015800963406149525 0.022840714001319744 0.010951709120997558 0.03906440135088378 -0.0030738697123441766 -19.769953040877066 0.03456246347625312 0.04172025652110998 0.01192205180403849 -0.015108457749823615 0.0212990684415982 -0.023505683515767956 -0.044765812870830556 -0.04276571344643858 24.100542799408444 0.031684927318285046 -0.009277571339302623 28.85064757315265 0.021499309056021425 -0.01636050434422437 28.909936889501274 -0.04319612592107292 0.01038943797640348 6.740878358658684 1.7998070507003998 12.965500980793472 -63.397470792344315 17.73831575885321 -16.326622045744102 5.443520739776957 -6.471006415871789 -50.99353210911024 -16.77821351482185 -1.6975115784280412 3.950390355951803 -0.4700960314866385 0.11246942831770562 -8.078846270022186 0.0335979971068012 -0.01440661001957588 44.56708489010385 0.005193590136919333 -0.02877930151243405 44.56594279252821 12.416680764275265 0.010531696096002179 0.013731767533477204 -0.02752097192115916 0.002187194486130279 -0.021428423387284592 0.03455580464869806 -0.0032263758483428587 0.016691232120697702 11.098316186864595 0.03577320141814797 -0.017258029227708922 -0.02974516118894926 -0.004579548083709255 0.04002796362371665 -0.023933298586761756 -0.016998350804066285 -0.012081632659450664 4.753648265026721 0.014416415525842816 -0.013101588880051725 -0.015889384098845723 -0.01687046222194897 -0.00839758022488393 0.017726937722527588 0.02444405651053903 0.007944928866484447 -5.61653734838113 0.015952850016776533 0.025407584123472132 -6.726427338270049 0.048872302747173066 0.002566549920666955 -6.760050208433344 -0.03347940146388273 -0.01716234231480201 0.019265276328320768 -0.025477164305512123 -0.0015010427014151473 8.07776132788076 3.5248910729837046 -19.24221931308461 0.036911100847737965 10.40846227804745 0.024622968264215072 -5.590663970564724 -15.703671137778386 3.19042176382626 -0.011100435417998123 0.03725002578936469 -0.038220513217763395 -0.033189886718734525 4.706012412989472 0.042171790141389505 12.490967008068074 -8.199598707449443 6.8551977775008 0.020558878815185783 46.42656290459364 -0.04470425415167731 -4.301504496734487 -14.796191945300087 -3.8274251628980926 -0.03455916901002887 0.038440492972768955 0.03661119439583985 0.004458478236398776 -10.720364792265604 0.039171432452440216 
-0.036276612273585 0.02387068972736522 -0.04000051517663902 -0.02797707039098954 -0.017007740397455735 -0.04443431383615217 0.5753284619792839 4.168551811611072 -1.4913526843051066 -1.0667483708838912 3.5845072773079747 0.47715023148362984 -1.0501971015469562 -0.712860055331164 0.3370934870811775 -0.7555681793862289 -0.238684610810454 -0.5248344568867557 -0.0613077865554929 10.86606151826383 -0.2744838666154788 0.03695438021176976 -0.9277125371078392 -1.6449147826207082 0.3250446994480089 -16.65368222595676 -0.1637225612322953 -8.618958929228343 3.2120432412475397 -15.548703031714979 65.67694220189854 -22.667589605163325 22.063406962867724 20.378746986031462 -2.1009318877959706 78.90607860591187 13.855559411367054 -0.46510078633986 -3.9374947924715555 4.534380596113701 -0.09857287333733691 -1.5675670318819985 0.009879217429087555 0.0006149485406358113 -56.26251684992107 0.04269531333963251 0.015906483925132334 -56.26287865450781 -38.77114384549185 -0.002270946665411199 -0.0442996133783529 0.015132540024951952 -0.03496881592828996 0.004127652354722 -0.016358637883865018 0.0033189905495313956 -0.016385013324951726 -36.7400481353544 0.030080707112966204 0.031745868102818674 0.026292088422378446 -0.023049168965680843 -0.026239504444045544 0.0177253820742139 -0.03725650410032996 0.004628598401437171 -19.793105015056437 0.011739740937145648 -0.02427121872396457 -0.019391276456355393 0.003409829689848607 0.043566161217418846 0.03853707461864298 0.019024054380880173 0.0003572487192075605 24.03150585179756 -0.0026006575302834423 -0.0023350754347175847 28.86071969327603 -0.004107373976888495 -0.009549823213638052 28.8561866518295 0.04787552465698685 -0.022021168822492065 6.3390192153037335 1.6390656382689746 12.97210160615774 -63.818559438503726 18.780781391190544 -15.464645494620566 3.656941086001337 -5.226251405928553 -52.43533554270194 -16.056039813202077 -2.054726425623498 4.077156298264722 -0.5159923187732848 0.03079340494565961 -8.127243905472364 0.04099743276721143 -0.03696824543249328 44.574969882979104 -0.02474115353388635 0.04523427994161045 44.53718465720247 12.438991823574703 0.04831963096834592 -0.03507824066830276 -0.014955160201567348 0.0360224903003344 -0.005120524554192389 0.03330393102731505 -0.036214513643948114 0.015553473008162207 11.135180820659123 -0.023680922310141034 0.036052356930518316 -0.0021066159518402044 -0.007867834523039454 -0.018282807634493085 -0.026898263659808838 -0.008240909394721895 0.047107307837987215 4.732911273572273 -0.0010733917150190409 -0.012915372301596523 0.03440049280052402 0.011513891566725 -0.03956344854635589 0.011261446573752524 -0.003180489943199878 0.038984418494758366 -5.569250258575165 -0.018427938186426882 0.036161897392593005 -6.678845836592413 0.001221310384492413 0.021934743508220337 -6.724315805298766 0.005421535568755869 0.013611392039382074 -0.01821509306708847 0.0074024553006338594 -0.003683551352561589 8.089160903383524 3.4753813644628866 -19.236701374489968 -0.04080788529750228 10.37293351542455 0.0025415855193876985 -5.637416092349393 -15.706804903935868 3.2358881585910098 0.025028206433248153 -0.02372774286359174 0.01984498060715504 -0.005116547078263753 4.711701411375191 -0.00013243374482553488 12.474888711635261 -8.227534842970291 6.904548444006532 0.006352633388881919 46.36540544414763 0.024371560646814908 -4.324772691753612 -14.767657712289775 -3.7990161263090507 -0.030981666423445808 0.0032930039328229787 -0.036768856495757105 -0.012607624453052867 -10.782660391356833 -0.008738311375072512 
